<mxfile host="app.diagrams.net" agent="Mozilla/5.0 (Windows NT 10.0; Win64; x64) AppleWebKit/537.36 (KHTML, like Gecko) Chrome/127.0.0.0 Safari/537.36" version="24.7.7">
  <diagram id="-yy6f_ba0gmpvKb-YtMF" name="Page-1">
    <mxGraphModel grid="1" page="1" gridSize="10" guides="1" tooltips="1" connect="1" arrows="1" fold="1" pageScale="1" pageWidth="827" pageHeight="1169" math="0" shadow="0">
      <root>
        <mxCell id="0" />
        <mxCell id="1" parent="0" />
        <mxCell id="AJrRuM_cbQ9ffXzwrl5P-4" value="" style="group" connectable="0" vertex="1" parent="1">
          <mxGeometry x="210" y="95" width="1150" height="980" as="geometry" />
        </mxCell>
        <mxCell id="CSMfXikzMPPu8obdzFbr-1" value="" style="whiteSpace=wrap;html=1;aspect=fixed;" vertex="1" parent="AJrRuM_cbQ9ffXzwrl5P-4">
          <mxGeometry x="170" width="980" height="980" as="geometry" />
        </mxCell>
        <mxCell id="WdfdE2CmQGKg2pCbGN4b-4" value="Usuario" style="shape=umlActor;verticalLabelPosition=bottom;verticalAlign=top;html=1;fillColor=#f8cecc;strokeColor=#b85450;" vertex="1" parent="AJrRuM_cbQ9ffXzwrl5P-4">
          <mxGeometry y="460" width="60" height="110" as="geometry" />
        </mxCell>
        <mxCell id="CSMfXikzMPPu8obdzFbr-7" value="Puede visualizar los reportes de la ultima carga" style="ellipse;whiteSpace=wrap;html=1;fillColor=#ffe6cc;strokeColor=#d79b00;" vertex="1" parent="AJrRuM_cbQ9ffXzwrl5P-4">
          <mxGeometry x="297.5" y="595" width="200" height="80" as="geometry" />
        </mxCell>
        <mxCell id="CSMfXikzMPPu8obdzFbr-14" value="Login" style="ellipse;whiteSpace=wrap;html=1;fillColor=#dae8fc;strokeColor=#6c8ebf;" vertex="1" parent="AJrRuM_cbQ9ffXzwrl5P-4">
          <mxGeometry x="920" y="460" width="170" height="70" as="geometry" />
        </mxCell>
        <mxCell id="ikXMgtSLxz50CwXbYWI3-1" value="Sube los archivos necesarios para realizar el procesamiento" style="ellipse;whiteSpace=wrap;html=1;fillColor=#ffe6cc;strokeColor=#d79b00;" vertex="1" parent="AJrRuM_cbQ9ffXzwrl5P-4">
          <mxGeometry x="300" y="360" width="200" height="80" as="geometry" />
        </mxCell>
        <mxCell id="CSMfXikzMPPu8obdzFbr-15" value="Include" style="endArrow=open;endSize=12;dashed=1;html=1;rounded=0;fontSize=15;entryX=0.041;entryY=0.673;entryDx=0;entryDy=0;entryPerimeter=0;exitX=1;exitY=0.5;exitDx=0;exitDy=0;" edge="1" parent="AJrRuM_cbQ9ffXzwrl5P-4" source="CSMfXikzMPPu8obdzFbr-18" target="CSMfXikzMPPu8obdzFbr-14">
          <mxGeometry width="160" relative="1" as="geometry">
            <mxPoint x="600" y="515" as="sourcePoint" />
            <mxPoint x="670" y="554.5" as="targetPoint" />
          </mxGeometry>
        </mxCell>
        <mxCell id="WdfdE2CmQGKg2pCbGN4b-29" value="Carga resultados del periodo anterior" style="ellipse;whiteSpace=wrap;html=1;fillColor=#ffe6cc;strokeColor=#d79b00;" vertex="1" parent="AJrRuM_cbQ9ffXzwrl5P-4">
          <mxGeometry x="292" y="123" width="208" height="80" as="geometry" />
        </mxCell>
        <mxCell id="CSMfXikzMPPu8obdzFbr-16" value="Include" style="endArrow=open;endSize=12;dashed=1;html=1;rounded=0;fontSize=15;entryX=0.5;entryY=0;entryDx=0;entryDy=0;exitX=1;exitY=0.5;exitDx=0;exitDy=0;" edge="1" parent="AJrRuM_cbQ9ffXzwrl5P-4" source="WdfdE2CmQGKg2pCbGN4b-29" target="CSMfXikzMPPu8obdzFbr-14">
          <mxGeometry width="160" relative="1" as="geometry">
            <mxPoint x="530" y="704.5" as="sourcePoint" />
            <mxPoint x="830" y="705" as="targetPoint" />
            <Array as="points">
              <mxPoint x="1005" y="163" />
            </Array>
          </mxGeometry>
        </mxCell>
        <mxCell id="ikXMgtSLxz50CwXbYWI3-2" value="Genera los resultados del periodo" style="ellipse;whiteSpace=wrap;html=1;fillColor=#ffe6cc;strokeColor=#d79b00;" vertex="1" parent="AJrRuM_cbQ9ffXzwrl5P-4">
          <mxGeometry x="295" y="241" width="205" height="80" as="geometry" />
        </mxCell>
        <mxCell id="CSMfXikzMPPu8obdzFbr-17" value="Include" style="endArrow=open;endSize=12;dashed=1;html=1;rounded=0;fontSize=15;entryX=0;entryY=1;entryDx=0;entryDy=0;" edge="1" parent="AJrRuM_cbQ9ffXzwrl5P-4" source="CSMfXikzMPPu8obdzFbr-7" target="CSMfXikzMPPu8obdzFbr-14">
          <mxGeometry width="160" relative="1" as="geometry">
            <mxPoint x="520" y="640" as="sourcePoint" />
            <mxPoint x="810" y="620.5" as="targetPoint" />
            <Array as="points">
              <mxPoint x="945" y="640" />
            </Array>
          </mxGeometry>
        </mxCell>
        <mxCell id="CSMfXikzMPPu8obdzFbr-18" value="Pude iniciar los procesamientos de inmediato o programarlos para que se ejecuten" style="ellipse;whiteSpace=wrap;html=1;fillColor=#ffe6cc;strokeColor=#d79b00;" vertex="1" parent="AJrRuM_cbQ9ffXzwrl5P-4">
          <mxGeometry x="300" y="475" width="200" height="80" as="geometry" />
        </mxCell>
        <mxCell id="WdfdE2CmQGKg2pCbGN4b-33" value="" style="html=1;verticalAlign=bottom;endArrow=block;rounded=0;entryX=0.018;entryY=0.607;entryDx=0;entryDy=0;exitX=0.5;exitY=0.5;exitDx=0;exitDy=0;exitPerimeter=0;entryPerimeter=0;" edge="1" parent="AJrRuM_cbQ9ffXzwrl5P-4" source="WdfdE2CmQGKg2pCbGN4b-4" target="WdfdE2CmQGKg2pCbGN4b-29">
          <mxGeometry x="-0.0737" y="6" width="80" relative="1" as="geometry">
            <mxPoint x="30" y="710" as="sourcePoint" />
            <mxPoint x="310" y="1269" as="targetPoint" />
            <mxPoint as="offset" />
          </mxGeometry>
        </mxCell>
        <mxCell id="WdfdE2CmQGKg2pCbGN4b-34" value="" style="html=1;verticalAlign=bottom;endArrow=block;rounded=0;exitX=0.5;exitY=0.5;exitDx=0;exitDy=0;exitPerimeter=0;entryX=0;entryY=0.5;entryDx=0;entryDy=0;" edge="1" parent="AJrRuM_cbQ9ffXzwrl5P-4" source="WdfdE2CmQGKg2pCbGN4b-4" target="CSMfXikzMPPu8obdzFbr-18">
          <mxGeometry width="80" relative="1" as="geometry">
            <mxPoint x="40" y="525" as="sourcePoint" />
            <mxPoint x="310" y="515" as="targetPoint" />
          </mxGeometry>
        </mxCell>
        <mxCell id="CSMfXikzMPPu8obdzFbr-26" value="" style="html=1;verticalAlign=bottom;endArrow=block;rounded=0;exitX=0.5;exitY=0.5;exitDx=0;exitDy=0;exitPerimeter=0;entryX=0;entryY=0.5;entryDx=0;entryDy=0;" edge="1" parent="AJrRuM_cbQ9ffXzwrl5P-4" source="WdfdE2CmQGKg2pCbGN4b-4" target="ikXMgtSLxz50CwXbYWI3-1">
          <mxGeometry width="80" relative="1" as="geometry">
            <mxPoint x="60" y="340" as="sourcePoint" />
            <mxPoint x="330" y="340" as="targetPoint" />
          </mxGeometry>
        </mxCell>
        <mxCell id="CSMfXikzMPPu8obdzFbr-27" value="Include" style="endArrow=open;endSize=12;dashed=1;html=1;rounded=0;fontSize=15;exitX=1;exitY=0.5;exitDx=0;exitDy=0;entryX=0;entryY=0;entryDx=0;entryDy=0;" edge="1" parent="AJrRuM_cbQ9ffXzwrl5P-4" source="ikXMgtSLxz50CwXbYWI3-1" target="CSMfXikzMPPu8obdzFbr-14">
          <mxGeometry width="160" relative="1" as="geometry">
            <mxPoint x="500" y="380" as="sourcePoint" />
            <mxPoint x="800" y="380" as="targetPoint" />
            <Array as="points">
              <mxPoint x="944" y="400" />
            </Array>
          </mxGeometry>
        </mxCell>
        <mxCell id="ikXMgtSLxz50CwXbYWI3-3" value="Puede visualizar los reportes de desempeño" style="ellipse;whiteSpace=wrap;html=1;fillColor=#ffe6cc;strokeColor=#d79b00;" vertex="1" parent="AJrRuM_cbQ9ffXzwrl5P-4">
          <mxGeometry x="300" y="730" width="200" height="80" as="geometry" />
        </mxCell>
        <mxCell id="CSMfXikzMPPu8obdzFbr-31" value="" style="html=1;verticalAlign=bottom;endArrow=block;rounded=0;exitX=0.5;exitY=0.5;exitDx=0;exitDy=0;exitPerimeter=0;entryX=0;entryY=0.5;entryDx=0;entryDy=0;" edge="1" parent="AJrRuM_cbQ9ffXzwrl5P-4" source="WdfdE2CmQGKg2pCbGN4b-4" target="ikXMgtSLxz50CwXbYWI3-2">
          <mxGeometry width="80" relative="1" as="geometry">
            <mxPoint x="120" y="285" as="sourcePoint" />
            <mxPoint x="380" y="360" as="targetPoint" />
          </mxGeometry>
        </mxCell>
        <mxCell id="WdfdE2CmQGKg2pCbGN4b-37" value="Include" style="endArrow=open;endSize=12;dashed=1;html=1;rounded=0;fontSize=15;exitX=1;exitY=0.5;exitDx=0;exitDy=0;entryX=0.344;entryY=0.959;entryDx=0;entryDy=0;entryPerimeter=0;" edge="1" parent="AJrRuM_cbQ9ffXzwrl5P-4" source="ikXMgtSLxz50CwXbYWI3-3" target="CSMfXikzMPPu8obdzFbr-14">
          <mxGeometry width="160" relative="1" as="geometry">
            <mxPoint x="510.00000000000045" y="650" as="sourcePoint" />
            <mxPoint x="834.8959235991429" y="549.7487373415292" as="targetPoint" />
            <Array as="points">
              <mxPoint x="858" y="770" />
              <mxPoint x="978" y="770" />
            </Array>
          </mxGeometry>
        </mxCell>
        <mxCell id="WdfdE2CmQGKg2pCbGN4b-38" value="Include" style="endArrow=open;endSize=12;dashed=1;html=1;rounded=0;fontSize=15;exitX=1;exitY=0.5;exitDx=0;exitDy=0;" edge="1" parent="AJrRuM_cbQ9ffXzwrl5P-4" source="ikXMgtSLxz50CwXbYWI3-2">
          <mxGeometry width="160" relative="1" as="geometry">
            <mxPoint x="500.00000000001046" y="289.75" as="sourcePoint" />
            <mxPoint x="980" y="460" as="targetPoint" />
            <Array as="points">
              <mxPoint x="980" y="281" />
            </Array>
          </mxGeometry>
        </mxCell>
        <mxCell id="CSMfXikzMPPu8obdzFbr-32" value="Configura las acciones de cobranza" style="ellipse;whiteSpace=wrap;html=1;fillColor=#ffe6cc;strokeColor=#d79b00;" vertex="1" parent="AJrRuM_cbQ9ffXzwrl5P-4">
          <mxGeometry x="290" y="20" width="210" height="80" as="geometry" />
        </mxCell>
        <mxCell id="ikXMgtSLxz50CwXbYWI3-4" value="Puede descargar los reportes según el tipo de acción&amp;nbsp;" style="ellipse;whiteSpace=wrap;html=1;fillColor=#ffe6cc;strokeColor=#d79b00;" vertex="1" parent="AJrRuM_cbQ9ffXzwrl5P-4">
          <mxGeometry x="300" y="860" width="200" height="70" as="geometry" />
        </mxCell>
        <mxCell id="CSMfXikzMPPu8obdzFbr-33" value="" style="html=1;verticalAlign=bottom;endArrow=block;rounded=0;entryX=0;entryY=0.5;entryDx=0;entryDy=0;exitX=0.5;exitY=0.5;exitDx=0;exitDy=0;exitPerimeter=0;" edge="1" parent="AJrRuM_cbQ9ffXzwrl5P-4" source="WdfdE2CmQGKg2pCbGN4b-4" target="CSMfXikzMPPu8obdzFbr-32">
          <mxGeometry width="80" relative="1" as="geometry">
            <mxPoint x="30" y="165" as="sourcePoint" />
            <mxPoint x="300" y="180" as="targetPoint" />
          </mxGeometry>
        </mxCell>
        <mxCell id="WdfdE2CmQGKg2pCbGN4b-39" value="Include" style="endArrow=open;endSize=12;dashed=1;html=1;rounded=0;fontSize=15;entryX=0.693;entryY=0.04;entryDx=0;entryDy=0;exitX=1;exitY=0.5;exitDx=0;exitDy=0;entryPerimeter=0;" edge="1" parent="AJrRuM_cbQ9ffXzwrl5P-4" source="CSMfXikzMPPu8obdzFbr-32" target="CSMfXikzMPPu8obdzFbr-14">
          <mxGeometry width="160" relative="1" as="geometry">
            <mxPoint x="500.00000000001046" y="60" as="sourcePoint" />
            <mxPoint x="1014.9999999999995" y="350" as="targetPoint" />
            <Array as="points">
              <mxPoint x="1040" y="60" />
            </Array>
          </mxGeometry>
        </mxCell>
        <mxCell id="WdfdE2CmQGKg2pCbGN4b-43" value="Include" style="endArrow=open;endSize=12;dashed=1;html=1;rounded=0;fontSize=15;exitX=1;exitY=0.5;exitDx=0;exitDy=0;entryX=0.708;entryY=0.974;entryDx=0;entryDy=0;entryPerimeter=0;" edge="1" parent="AJrRuM_cbQ9ffXzwrl5P-4" source="ikXMgtSLxz50CwXbYWI3-4" target="CSMfXikzMPPu8obdzFbr-14">
          <mxGeometry width="160" relative="1" as="geometry">
            <mxPoint x="462.50000000000045" y="890.25" as="sourcePoint" />
            <mxPoint x="907.3959235991283" y="769.9987373415354" as="targetPoint" />
            <Array as="points">
              <mxPoint x="1040" y="895" />
            </Array>
          </mxGeometry>
        </mxCell>
        <mxCell id="AJrRuM_cbQ9ffXzwrl5P-1" value="" style="html=1;verticalAlign=bottom;endArrow=block;rounded=0;exitX=0.5;exitY=0.5;exitDx=0;exitDy=0;exitPerimeter=0;entryX=0;entryY=0.5;entryDx=0;entryDy=0;" edge="1" parent="AJrRuM_cbQ9ffXzwrl5P-4" source="WdfdE2CmQGKg2pCbGN4b-4" target="CSMfXikzMPPu8obdzFbr-7">
          <mxGeometry width="80" relative="1" as="geometry">
            <mxPoint x="40" y="525" as="sourcePoint" />
            <mxPoint x="160" y="575" as="targetPoint" />
          </mxGeometry>
        </mxCell>
        <mxCell id="AJrRuM_cbQ9ffXzwrl5P-2" value="" style="html=1;verticalAlign=bottom;endArrow=block;rounded=0;exitX=0.5;exitY=0.5;exitDx=0;exitDy=0;exitPerimeter=0;entryX=0;entryY=0.5;entryDx=0;entryDy=0;" edge="1" parent="AJrRuM_cbQ9ffXzwrl5P-4" source="WdfdE2CmQGKg2pCbGN4b-4" target="ikXMgtSLxz50CwXbYWI3-3">
          <mxGeometry width="80" relative="1" as="geometry">
            <mxPoint x="40" y="525" as="sourcePoint" />
            <mxPoint x="310" y="635" as="targetPoint" />
          </mxGeometry>
        </mxCell>
        <mxCell id="AJrRuM_cbQ9ffXzwrl5P-3" value="" style="html=1;verticalAlign=bottom;endArrow=block;rounded=0;exitX=0.5;exitY=0.5;exitDx=0;exitDy=0;exitPerimeter=0;entryX=0;entryY=0.5;entryDx=0;entryDy=0;" edge="1" parent="AJrRuM_cbQ9ffXzwrl5P-4" source="WdfdE2CmQGKg2pCbGN4b-4" target="ikXMgtSLxz50CwXbYWI3-4">
          <mxGeometry width="80" relative="1" as="geometry">
            <mxPoint x="50" y="535" as="sourcePoint" />
            <mxPoint x="320" y="645" as="targetPoint" />
          </mxGeometry>
        </mxCell>
      </root>
    </mxGraphModel>
  </diagram>
</mxfile>
